<?xml version="1.0" encoding="utf-8"?>
<!-- Generator: Adobe Illustrator 16.0.3, SVG Export Plug-In . SVG Version: 6.00 Build 0)  -->
<!DOCTYPE svg PUBLIC "-//W3C//DTD SVG 1.1//EN" "http://www.w3.org/Graphics/SVG/1.1/DTD/svg11.dtd">
<svg version="1.1" id="Capa_1" xmlns="http://www.w3.org/2000/svg" xmlns:xlink="http://www.w3.org/1999/xlink" x="0px" y="0px"
	 width="200px" height="500px" viewBox="0 0 200 500" enable-background="new 0 0 200 500" xml:space="preserve">
<g>
	<g>
		<path fill="#FFFFFF" d="M131.59,48.055c-1.591-1.765-3.8-2.852-6.168-3.035c-0.184-2.37-1.271-4.578-3.036-6.169
			c-3.554-3.153-8.908-3.136-12.442,0.039c-2.625,2.376-3.659,6.045-2.661,9.443c0.707,2.295,0.111,4.795-1.557,6.524L82.481,78.1
			c-1.729,1.667-4.227,2.264-6.522,1.556c-3.397-0.998-7.066,0.036-9.442,2.662c-3.175,3.534-3.192,8.888-0.039,12.441
			c1.591,1.766,3.799,2.852,6.168,3.036c0.403,5.103,4.865,8.912,9.968,8.509c5.103-0.402,8.913-4.865,8.51-9.968
			c-0.049-0.628-0.163-1.249-0.339-1.854c-0.706-2.296-0.11-4.795,1.557-6.524l23.245-23.243c1.729-1.667,4.229-2.264,6.524-1.556
			c3.396,0.997,7.064-0.037,9.439-2.662C134.727,56.963,134.743,51.609,131.59,48.055z M130.141,59.21
			c-1.888,2.084-4.801,2.906-7.499,2.115c-2.965-0.901-6.184-0.119-8.405,2.04L90.992,86.611c-2.16,2.221-2.942,5.44-2.041,8.404
			c0.792,2.699-0.03,5.612-2.114,7.5c-3.001,2.736-7.652,2.522-10.389-0.479c-1.28-1.403-1.967-3.248-1.917-5.146
			c0.012-0.527-0.406-0.965-0.933-0.978c-0.007,0-0.015,0-0.021,0h-0.023c-2.151,0.059-4.218-0.83-5.656-2.431
			c-2.503-2.82-2.49-7.07,0.03-9.875c1.887-2.085,4.801-2.907,7.499-2.115c2.964,0.901,6.185,0.12,8.405-2.041l23.244-23.245
			c2.161-2.221,2.942-5.441,2.041-8.405c-0.792-2.698,0.03-5.611,2.114-7.499c3.002-2.737,7.654-2.522,10.392,0.48
			c1.278,1.403,1.966,3.247,1.916,5.146c-0.006,0.26,0.094,0.513,0.28,0.698c0.185,0.184,0.437,0.285,0.697,0.279
			c4.06-0.105,7.438,3.101,7.543,7.161C132.108,55.963,131.421,57.808,130.141,59.21L130.141,59.21z"/>
		<path fill="#FFFFFF" d="M126.107,51.715c-0.393,0.353-0.424,0.957-0.07,1.348l0,0c0.587,0.693,0.584,1.708-0.007,2.397
			c-0.465,0.509-1.178,0.71-1.84,0.521c-0.509-0.14-1.034,0.159-1.173,0.667c-0.139,0.499,0.147,1.016,0.643,1.167
			c0.339,0.097,0.688,0.146,1.04,0.145c1.044,0.006,2.042-0.435,2.74-1.212c1.246-1.418,1.252-3.539,0.016-4.964
			C127.102,51.392,126.498,51.362,126.107,51.715z"/>
	</g>
</g>
<g>
	<g>
		<path fill="#FFFFFF" d="M44.921,156.741c-2.324,0.627-4.319,2.122-5.572,4.177c-2.224-0.922-4.716-0.954-6.963-0.09
			c-4.479,1.762-6.921,6.604-5.676,11.252c0.941,3.461,3.779,6.079,7.305,6.737c2.397,0.415,4.381,2.1,5.177,4.399l10.317,31.657
			c0.711,2.324,0.104,4.855-1.59,6.602c-2.46,2.609-3.21,6.397-1.929,9.749c1.732,4.487,6.559,6.96,11.215,5.744
			c2.325-0.626,4.319-2.121,5.571-4.177c4.792,1.98,10.281-0.301,12.259-5.093s-0.302-10.28-5.094-12.258
			c-0.59-0.245-1.203-0.428-1.828-0.544c-2.398-0.416-4.381-2.102-5.177-4.401l-10.318-31.657c-0.712-2.327-0.104-4.856,1.59-6.605
			c2.458-2.609,3.208-6.396,1.929-9.745C54.404,157.998,49.577,155.526,44.921,156.741z M54.328,163.17
			c1.016,2.661,0.42,5.668-1.533,7.741c-2.174,2.264-2.946,5.529-2.016,8.526l10.32,31.657c1.013,2.971,3.562,5.155,6.652,5.701
			c2.799,0.523,5.053,2.603,5.801,5.352c1.092,3.964-1.235,8.067-5.202,9.159c-1.854,0.513-3.834,0.287-5.526-0.629
			c-0.47-0.253-1.057-0.077-1.311,0.393c-0.003,0.006-0.007,0.013-0.01,0.02l-0.011,0.02c-0.933,1.97-2.686,3.428-4.791,3.991
			c-3.695,0.968-7.527-0.995-8.902-4.558c-1.018-2.663-0.422-5.67,1.532-7.743c2.175-2.263,2.946-5.53,2.016-8.525l-10.319-31.657
			c-1.014-2.971-3.563-5.154-6.653-5.7c-2.8-0.523-5.052-2.603-5.8-5.351c-1.093-3.967,1.236-8.068,5.203-9.162
			c1.854-0.511,3.834-0.285,5.525,0.631c0.232,0.125,0.506,0.151,0.758,0.068c0.251-0.082,0.458-0.264,0.573-0.502
			c1.768-3.713,6.213-5.292,9.928-3.523C52.298,159.903,53.648,161.37,54.328,163.17L54.328,163.17z"/>
		<path fill="#FFFFFF" d="M45.709,163.372c0.138,0.516,0.669,0.821,1.185,0.682l0,0c0.895-0.212,1.81,0.257,2.161,1.106
			c0.246,0.654,0.101,1.39-0.374,1.901c-0.36,0.396-0.332,1.006,0.064,1.365c0.387,0.354,0.985,0.333,1.348-0.045
			c0.243-0.261,0.448-0.555,0.608-0.873c0.484-0.94,0.544-2.043,0.163-3.03c-0.708-1.776-2.621-2.755-4.475-2.292
			C45.874,162.326,45.569,162.856,45.709,163.372z"/>
	</g>
</g>
<g>
	<g>
		<path fill="#FFFFFF" d="M110.76,353.914c2.34,0.629,4.83,0.336,6.959-0.819c1.469,1.926,3.621,3.213,6.012,3.596
			c4.786,0.73,9.358-2.248,10.624-6.922c0.93-3.486-0.219-7.198-2.953-9.552c-1.875-1.572-2.75-4.041-2.281-6.443l7.016-32.755
			c0.557-2.384,2.363-4.277,4.717-4.942c3.461-1.027,6.025-3.944,6.605-7.507c0.76-4.78-2.191-9.37-6.857-10.665
			c-2.338-0.629-4.828-0.335-6.957,0.82c-3.17-4.143-9.097-4.931-13.239-1.762c-4.143,3.17-4.93,9.099-1.762,13.24
			c0.391,0.511,0.832,0.979,1.316,1.398c1.877,1.572,2.752,4.04,2.281,6.443l-7.014,32.756c-0.557,2.385-2.363,4.277-4.721,4.944
			c-3.458,1.027-6.022,3.942-6.602,7.503C103.145,348.03,106.096,352.62,110.76,353.914z M105.824,343.568
			c0.46-2.828,2.496-5.144,5.244-5.962c3.035-0.871,5.355-3.321,6.061-6.398l7.012-32.758c0.619-3.097-0.494-6.284-2.906-8.32
			c-2.172-1.87-3.082-4.818-2.344-7.587c1.053-4.002,5.15-6.395,9.153-5.342c1.871,0.491,3.479,1.688,4.488,3.34
			c0.283,0.459,0.881,0.601,1.34,0.319c0.006-0.003,0.014-0.007,0.02-0.012l0.02-0.013c1.807-1.241,4.068-1.625,6.186-1.052
			c3.701,1.026,6.045,4.67,5.441,8.465c-0.459,2.83-2.496,5.146-5.244,5.962c-3.035,0.87-5.357,3.322-6.061,6.399l-7.014,32.758
			c-0.618,3.096,0.496,6.284,2.908,8.32c2.172,1.87,3.082,4.817,2.344,7.586c-1.053,4.004-5.152,6.396-9.155,5.344
			c-1.871-0.493-3.48-1.689-4.488-3.341c-0.139-0.227-0.365-0.387-0.627-0.442c-0.26-0.055-0.531-0.002-0.752,0.147
			c-3.414,2.338-8.078,1.466-10.417-1.949C105.938,347.437,105.506,345.478,105.824,343.568L105.824,343.568z"/>
		<path fill="#FFFFFF" d="M113.424,347.747c0.141-0.519-0.168-1.053-0.686-1.192l0,0c-0.887-0.267-1.445-1.137-1.322-2.054
			c0.117-0.692,0.615-1.26,1.287-1.465c0.512-0.162,0.795-0.708,0.633-1.221c-0.158-0.503-0.689-0.787-1.195-0.642
			c-0.344,0.105-0.67,0.258-0.971,0.453c-0.896,0.572-1.506,1.502-1.672,2.554c-0.281,1.902,0.887,3.721,2.734,4.255
			C112.752,348.574,113.285,348.267,113.424,347.747z"/>
	</g>
</g>
<g>
	<g>
		<path fill="#FFFFFF" d="M106.405,474.881c1.443-1.943,2.086-4.369,1.793-6.771c2.33-0.659,4.318-2.188,5.552-4.271
			c2.438-4.184,1.347-9.53-2.536-12.424c-2.9-2.146-6.775-2.44-9.969-0.762c-2.15,1.167-4.769,1.074-6.83-0.244l-27.89-18.555
			c-2.013-1.394-3.11-3.77-2.865-6.202c0.315-3.597-1.456-7.054-4.556-8.901c-4.168-2.462-9.521-1.403-12.438,2.462
			c-1.443,1.943-2.085,4.367-1.792,6.771c-5.018,1.427-7.927,6.651-6.501,11.668c1.428,5.016,6.653,7.927,11.668,6.5
			c0.619-0.176,1.217-0.414,1.784-0.711c2.151-1.167,4.768-1.074,6.83,0.246l27.892,18.554c2.014,1.394,3.11,3.769,2.865,6.206
			c-0.314,3.593,1.455,7.049,4.555,8.896C98.136,479.805,103.488,478.746,106.405,474.881z M94.969,475.674
			c-2.461-1.467-3.866-4.212-3.619-7.066c0.305-3.144-1.122-6.201-3.726-7.987l-27.893-18.554c-2.653-1.714-6.027-1.847-8.807-0.352
			c-2.537,1.334-5.614,1.098-7.918-0.606c-3.335-2.448-4.056-7.139-1.606-10.476c1.144-1.561,2.848-2.615,4.755-2.948
			c0.531-0.095,0.882-0.599,0.789-1.129c-0.001-0.007-0.001-0.016-0.004-0.022l-0.005-0.023c-0.49-2.136-0.017-4.381,1.294-6.139
			c2.313-3.066,6.563-3.908,9.871-1.953c2.464,1.467,3.87,4.212,3.62,7.067c-0.306,3.143,1.122,6.203,3.727,7.987l27.893,18.554
			c2.651,1.713,6.027,1.847,8.807,0.352c2.537-1.334,5.613-1.098,7.917,0.605c3.337,2.45,4.056,7.142,1.608,10.478
			c-1.146,1.561-2.85,2.616-4.757,2.949c-0.262,0.046-0.493,0.196-0.641,0.419c-0.146,0.222-0.197,0.493-0.14,0.754
			c0.921,4.033-1.603,8.052-5.639,8.974C98.609,476.987,96.628,476.672,94.969,475.674L94.969,475.674z"/>
		<path fill="#FFFFFF" d="M101.647,470.139c-0.431-0.321-1.041-0.23-1.361,0.201l0,0c-0.573,0.726-1.588,0.925-2.396,0.474
			c-0.602-0.361-0.946-1.033-0.891-1.733c0.038-0.537-0.365-1.001-0.902-1.038c-0.525-0.038-0.984,0.352-1.036,0.878
			c-0.027,0.356-0.006,0.718,0.065,1.067c0.203,1.044,0.844,1.954,1.761,2.495c1.667,0.959,3.787,0.539,4.963-0.983
			C102.17,471.067,102.08,470.458,101.647,470.139z"/>
	</g>
</g>
</svg>
